<svg xmlns="http://www.w3.org/2000/svg" width="640" height="360" viewBox="0 0 640 360" fill="none">
  <defs>
    <linearGradient id="bg" x1="70" y1="40" x2="590" y2="340" gradientUnits="userSpaceOnUse">
      <stop stop-color="#0A84FF" stop-opacity="0.20"/>
      <stop offset="1" stop-color="#63C7FF" stop-opacity="0.14"/>
    </linearGradient>
    <linearGradient id="w" x1="160" y1="240" x2="500" y2="330" gradientUnits="userSpaceOnUse">
      <stop stop-color="#63C7FF" stop-opacity="0.24"/>
      <stop offset="1" stop-color="#0A84FF" stop-opacity="0.12"/>
    </linearGradient>
  </defs>
  <rect x="0" y="0" width="640" height="360" rx="28" fill="url(#bg)"/>
  <path d="M0 260c112-40 220-50 324-30 116 22 214 18 316-18v148H0V260z" fill="url(#w)"/>
  <!-- big cruiser -->
  <path d="M140 214h360l28 18c-40 48-104 80-208 80s-168-32-208-80l28-18z" fill="rgba(255,255,255,.88)" stroke="rgba(7,18,41,.18)" stroke-width="2"/>
  <path d="M226 186h188c18 0 34 14 34 34v24H192v-24c0-20 16-34 34-34z" fill="rgba(255,255,255,.70)" stroke="rgba(7,18,41,.16)" stroke-width="2"/>
  <!-- windows -->
  <g opacity="0.9">
    <rect x="216" y="206" width="52" height="18" rx="8" fill="rgba(10,132,255,.18)"/>
    <rect x="276" y="206" width="52" height="18" rx="8" fill="rgba(10,132,255,.18)"/>
    <rect x="336" y="206" width="52" height="18" rx="8" fill="rgba(10,132,255,.18)"/>
  </g>
  <!-- WC icon -->
  <rect x="416" y="190" width="28" height="18" rx="9" fill="rgba(10,132,255,.18)" stroke="rgba(10,132,255,.30)"/>
  <path d="M423 204c2 2 7 2 9 0" stroke="rgba(7,18,41,.55)" stroke-width="2" stroke-linecap="round"/>
  <circle cx="384" cy="254" r="6" fill="#0A84FF" opacity="0.85"/>
</svg>
